<svg preserveAspectRatio="none" width="100%" height="100%" overflow="visible" style="display: block;" viewBox="0 0 20 20" fill="none" xmlns="http://www.w3.org/2000/svg">
<g id="Star 3">
<g filter="url(#filter0_i_0_4)">
<path d="M7.76666 1.05443C8.92367 -0.351477 11.0763 -0.351477 12.2333 1.05443C12.8454 1.79818 13.7876 2.18843 14.7463 2.09532C16.5585 1.91932 18.0807 3.44148 17.9047 5.25374C17.8116 6.21244 18.2018 7.15459 18.9456 7.76666C20.3515 8.92367 20.3515 11.0763 18.9456 12.2333C18.2018 12.8454 17.8116 13.7876 17.9047 14.7463C18.0807 16.5585 16.5585 18.0807 14.7463 17.9047C13.7876 17.8116 12.8454 18.2018 12.2333 18.9456C11.0763 20.3515 8.92367 20.3515 7.76666 18.9456C7.15459 18.2018 6.21244 17.8116 5.25374 17.9047C3.44148 18.0807 1.91932 16.5585 2.09532 14.7463C2.18843 13.7876 1.79818 12.8454 1.05443 12.2333C-0.351477 11.0763 -0.351477 8.92367 1.05443 7.76666C1.79818 7.15459 2.18843 6.21244 2.09532 5.25374C1.91932 3.44148 3.44148 1.91932 5.25374 2.09532C6.21244 2.18843 7.15459 1.79818 7.76666 1.05443Z" fill="url(#paint0_linear_0_4)" fill-opacity="0.05"/>
</g>
<path d="M8.15234 1.37207C9.10934 0.209198 10.8907 0.209198 11.8477 1.37207C12.5655 2.24429 13.6705 2.70197 14.7949 2.59277C16.2936 2.44743 17.5526 3.70637 17.4072 5.20508C17.298 6.32945 17.7557 7.43446 18.6279 8.15234C19.7908 9.10934 19.7908 10.8907 18.6279 11.8477C17.7557 12.5655 17.298 13.6705 17.4072 14.7949C17.5526 16.2936 16.2936 17.5526 14.7949 17.4072C13.6705 17.298 12.5655 17.7557 11.8477 18.6279C10.8907 19.7908 9.10934 19.7908 8.15234 18.6279C7.43446 17.7557 6.32945 17.298 5.20508 17.4072C3.70637 17.5526 2.44743 16.2936 2.59277 14.7949C2.70197 13.6705 2.24429 12.5655 1.37207 11.8477C0.209198 10.8907 0.209198 9.10934 1.37207 8.15234C2.24429 7.43446 2.70197 6.32945 2.59277 5.20508C2.44743 3.70637 3.70637 2.44743 5.20508 2.59277C6.32945 2.70197 7.43446 2.24429 8.15234 1.37207Z" stroke="url(#paint1_linear_0_4)" stroke-opacity="0.2"/>
</g>
<defs>
<filter id="filter0_i_0_4" x="0" y="0" width="22" height="22" filterUnits="userSpaceOnUse" color-interpolation-filters="sRGB">
<feFlood flood-opacity="0" result="BackgroundImageFix"/>
<feBlend mode="normal" in="SourceGraphic" in2="BackgroundImageFix" result="shape"/>
<feColorMatrix in="SourceAlpha" type="matrix" values="0 0 0 0 0 0 0 0 0 0 0 0 0 0 0 0 0 0 127 0" result="hardAlpha"/>
<feOffset dx="2" dy="2"/>
<feGaussianBlur stdDeviation="1.5"/>
<feComposite in2="hardAlpha" operator="arithmetic" k2="-1" k3="1"/>
<feColorMatrix type="matrix" values="0 0 0 0 0 0 0 0 0 0 0 0 0 0 0 0 0 0 0.16 0"/>
<feBlend mode="normal" in2="shape" result="effect1_innerShadow_0_4"/>
</filter>
<linearGradient id="paint0_linear_0_4" x1="10" y1="-2.89563e-08" x2="10" y2="20" gradientUnits="userSpaceOnUse">
<stop stop-color="#291334" style="stop-color:#291334;stop-color:color(display-p3 0.1608 0.0745 0.2039);stop-opacity:1;"/>
</linearGradient>
<linearGradient id="paint1_linear_0_4" x1="10" y1="-2.89563e-08" x2="10" y2="20" gradientUnits="userSpaceOnUse">
<stop stop-color="#953FE3" style="stop-color:#953FE3;stop-color:color(display-p3 0.5843 0.2471 0.8902);stop-opacity:1;"/>
</linearGradient>
</defs>
</svg>
