<svg preserveAspectRatio="none" width="100%" height="100%" overflow="visible" style="display: block;" viewBox="0 0 24 24" fill="none" xmlns="http://www.w3.org/2000/svg">
<g id="Subtract">
<path d="M8.4 0C9.72548 0 10.8 1.07452 10.8 2.4V15.6H6C6 17.1913 6.63259 18.717 7.75781 19.8422C8.59584 20.6802 9.65592 21.2446 10.8 21.4781V24H2.4C1.07452 24 0 22.9255 0 21.6V8.69766C0.0626512 8.32551 0.238154 7.97903 0.508594 7.70859C0.851224 7.36596 1.31545 7.17305 1.8 7.17305C2.28455 7.17305 2.74878 7.36596 3.09141 7.70859C3.15024 7.76743 3.20467 7.82986 3.25446 7.89535C3.65103 8.41703 4.15818 9 4.81348 9C5.46878 9 6.01621 8.45846 5.8334 7.82918C5.63771 7.15557 5.27448 6.53542 4.76953 6.03047C3.98188 5.24282 2.91391 4.8 1.8 4.8C1.17133 4.8 0.557268 4.94099 0 5.20547V2.4C0 1.07452 1.07452 0 2.4 0H8.4Z" fill="var(--fill-0, #291334)"/>
<path d="M24 5.20547C23.4427 4.94099 22.8287 4.8 22.2 4.8C21.0861 4.8 20.0181 5.24282 19.2305 6.03047C18.7255 6.53542 18.3623 7.15557 18.1666 7.82918C17.9838 8.45846 18.5312 9 19.1865 9C19.8418 9 20.349 8.41703 20.7455 7.89535C20.7953 7.82986 20.8498 7.76743 20.9086 7.70859C21.2512 7.36596 21.7154 7.17305 22.2 7.17305C22.6846 7.17305 23.1488 7.36596 23.4914 7.70859C23.7618 7.97903 23.9373 8.32551 24 8.69766V19.6C24 22.0301 22.0301 24 19.6 24H13.2V21.4781C14.3441 21.2446 15.4042 20.6802 16.2422 19.8422C17.3674 18.717 18 17.1913 18 15.6H17.6C15.1699 15.6 13.2 13.6301 13.2 11.2V4.4C13.2 1.96995 15.1699 0 17.6 0H19.6C22.03 0 24 1.96995 24 4.4V5.20547Z" fill="var(--fill-0, #291334)"/>
</g>
</svg>
