<svg width="758" height="760" viewBox="0 0 758 760" fill="none" xmlns="http://www.w3.org/2000/svg">
<g filter="url(#filter0_di_629_2604)">
<path d="M282.2 54C318.209 54 347.4 83.191 347.4 119.2V471.8C347.4 475.114 344.714 477.8 341.4 477.8H223C219.686 477.8 216.988 480.488 217.11 483.8C218.622 524.85 235.603 563.895 264.754 593.046C286.347 614.64 313.368 629.544 342.615 636.437C345.39 637.091 347.4 639.537 347.4 642.388V700C347.4 703.314 344.714 706 341.4 706H119.2C83.191 706 54 676.809 54 640.8V290.286C55.702 280.176 60.4698 270.764 67.8168 263.417C77.1249 254.109 89.7363 248.868 102.9 248.868C116.064 248.868 128.675 254.109 137.983 263.417C139.582 265.015 141.06 266.711 142.413 268.49C153.186 282.663 166.964 298.5 184.766 298.5C202.568 298.5 217.44 283.788 212.474 266.693C207.158 248.393 197.29 231.545 183.572 217.828C162.174 196.43 133.161 184.4 102.9 184.4C89.0456 184.4 75.4523 186.92 62.7319 191.708C58.6076 193.26 54 190.333 54 185.926V119.2C54 83.191 83.191 54 119.2 54H282.2Z" fill="black" fill-opacity="0.01" shape-rendering="geometricPrecision"/>
<path d="M706 185.926C706 190.333 701.392 193.26 697.268 191.708C684.548 186.92 670.954 184.4 657.1 184.4C626.839 184.4 597.826 196.43 576.428 217.828C562.71 231.545 552.842 248.393 547.526 266.693C542.56 283.788 557.432 298.5 575.234 298.5C593.036 298.5 606.814 282.663 617.587 268.49C618.94 266.711 620.418 265.015 622.017 263.417C631.325 254.109 643.936 248.868 657.1 248.868C670.264 248.868 682.875 254.109 692.183 263.417C699.53 270.764 704.298 280.176 706 290.286V586.467C706 652.483 652.483 706 586.467 706H418.6C415.286 706 412.6 703.314 412.6 700V642.388C412.6 639.537 414.61 637.091 417.385 636.437C446.632 629.544 473.652 614.64 495.246 593.046C524.397 563.895 541.378 524.85 542.889 483.8C543.011 480.488 540.314 477.8 537 477.8H532.133C466.117 477.8 412.6 424.283 412.6 358.267V173.533C412.6 107.517 466.117 54 532.133 54H586.467C652.483 54 706 107.517 706 173.533V185.926Z" fill="black" fill-opacity="0.01" shape-rendering="geometricPrecision"/>
</g>
<defs>
<filter id="filter0_di_629_2604" x="0" y="0" width="760" height="760" filterUnits="userSpaceOnUse" color-interpolation-filters="sRGB">
<feFlood flood-opacity="0" result="BackgroundImageFix"/>
<feColorMatrix in="SourceAlpha" type="matrix" values="0 0 0 0 0 0 0 0 0 0 0 0 0 0 0 0 0 0 127 0" result="hardAlpha"/>
<feOffset/>
<feGaussianBlur stdDeviation="27"/>
<feComposite in2="hardAlpha" operator="out"/>
<feColorMatrix type="matrix" values="0 0 0 0 1 0 0 0 0 1 0 0 0 0 1 0 0 0 1 0"/>
<feBlend mode="normal" in2="BackgroundImageFix" result="effect1_dropShadow_629_2604"/>
<feBlend mode="normal" in="SourceGraphic" in2="effect1_dropShadow_629_2604" result="shape"/>
<feColorMatrix in="SourceAlpha" type="matrix" values="0 0 0 0 0 0 0 0 0 0 0 0 0 0 0 0 0 0 127 0" result="hardAlpha"/>
<feOffset dy="36"/>
<feGaussianBlur stdDeviation="18"/>
<feComposite in2="hardAlpha" operator="arithmetic" k2="-1" k3="1"/>
<feColorMatrix type="matrix" values="0 0 0 0 0 0 0 0 0 0 0 0 0 0 0 0 0 0 0.25 0"/>
<feBlend mode="normal" in2="shape" result="effect2_innerShadow_629_2604"/>
</filter>
</defs>
</svg>
